<svg width="195" height="134" viewBox="0 0 195 134" fill="none" xmlns="http://www.w3.org/2000/svg"><path d="M31.193 75.98c-2.4733 0-4.7133-.2333-6.72-.7-2.0066-.4667-3.7333-1.1433-5.18-2.03-1.4466-.8867-2.6133-1.9367-3.5-3.15-.8866-1.26-1.47-2.66-1.75-4.2l7.7-3.15c.1867 1.0267.7 1.9833 1.54 2.87.84.8867 1.96 1.61 3.36 2.17 1.4467.5133 3.1734.77 5.18.77 2.1467 0 3.8034-.3033 4.97-.91 1.1667-.6533 1.75-1.5633 1.75-2.73 0-.8867-.3266-1.5867-.98-2.1-.6533-.5133-1.61-.9567-2.87-1.33-1.26-.3733-2.7766-.7233-4.55-1.05-1.7266-.42-3.5-.8633-5.32-1.33-1.7733-.4667-3.43-1.12-4.97-1.96-1.4933-.84-2.73-1.9367-3.71-3.29-.9333-1.4-1.4-3.1733-1.4-5.32 0-2.24.6067-4.2 1.82-5.88 1.2134-1.68 2.9867-2.9867 5.32-3.92 2.3334-.98 5.18-1.47 8.54-1.47 3.0334 0 5.6934.42 7.98 1.26 2.2867.7933 4.1534 1.96 5.6 3.5 1.4934 1.4933 2.4967 3.29 3.01 5.39l-8.19 2.73c-.1866-1.12-.6533-2.1-1.4-2.94-.7-.84-1.6566-1.47-2.87-1.89-1.1666-.42-2.5433-.63-4.13-.63-2.0066 0-3.57.3267-4.69.98-1.0733.6533-1.61 1.5167-1.61 2.59 0 .8867.35 1.61 1.05 2.17.7467.56 1.7734 1.0267 3.08 1.4 1.3067.3267 2.8467.6767 4.62 1.05 1.8667.3733 3.6867.8167 5.46 1.33 1.7734.4667 3.36 1.0967 4.76 1.89 1.4467.7933 2.59 1.8433 3.43 3.15.84 1.3067 1.26 2.9867 1.26 5.04 0 2.4267-.6533 4.5267-1.96 6.3-1.3066 1.7267-3.1966 3.0567-5.67 3.99-2.4733.9333-5.46 1.4-8.96 1.4ZM51.2059 75V38.25h8.26l-.07 10.99h1.4c.6067-2.66 1.47-4.8767 2.59-6.65 1.12-1.7733 2.52-3.1033 4.2-3.99 1.7267-.8867 3.7567-1.33 6.09-1.33 4.2467 0 7.4667 1.4933 9.66 4.48 2.24 2.9867 3.36 7.6767 3.36 14.07V75h-10.15V56.94c0-3.92-.5833-6.7667-1.75-8.54-1.12-1.82-2.7766-2.73-4.97-2.73-1.8666 0-3.43.5833-4.69 1.75-1.26 1.1667-2.2166 2.7067-2.87 4.62-.6066 1.8667-.9333 3.9667-.98 6.3V75h-10.08Zm57.3201.98c-3.687 0-6.93-.7233-9.7299-2.17-2.8-1.4933-4.9933-3.6633-6.58-6.51-1.5867-2.8933-2.38-6.4867-2.38-10.78 0-4.2933.7933-7.8633 2.38-10.71 1.6333-2.8467 3.85-4.97 6.65-6.37 2.8469-1.4467 6.0669-2.17 9.6599-2.17 3.687 0 6.93.7233 9.73 2.17 2.847 1.4467 5.063 3.6167 6.65 6.51 1.633 2.8467 2.45 6.4167 2.45 10.71 0 4.34-.84 7.9567-2.52 10.85-1.633 2.8467-3.873 4.97-6.72 6.37-2.8 1.4-5.997 2.1-9.59 2.1Zm.35-7.49c1.82 0 3.337-.42 4.55-1.26 1.26-.84 2.193-2.1 2.8-3.78.653-1.7267.98-3.8033.98-6.23 0-2.5667-.35-4.7367-1.05-6.51-.653-1.82-1.633-3.1967-2.94-4.13-1.307-.98-2.963-1.47-4.97-1.47-1.727 0-3.22.42-4.48 1.26-1.26.7933-2.217 2.0533-2.87 3.78-.653 1.68-.9799 3.7567-.9799 6.23 0 3.9667.7929 6.9767 2.3799 9.03 1.587 2.0533 3.78 3.08 6.58 3.08ZM136.347 75l-9.1-36.75h10.5l5.18 28.77h1.33l6.16-28.77h12.11l6.37 28.77h1.33l5.04-28.77h10.29L176.387 75h-13.86l-5.74-28.56h-1.19L150.137 75h-13.79ZM35.1456 130v-23.52h-5.81v-7.42l9.8.42v-1.33c-1.6333-.3733-2.9867-.9567-4.06-1.75-1.0267-.84-1.7733-1.8433-2.24-3.01-.4667-1.1667-.7-2.4033-.7-3.71 0-2.0067.5133-3.7333 1.54-5.18 1.0267-1.4933 2.4733-2.6367 4.34-3.43 1.8667-.84 4.06-1.26 6.58-1.26 2.1467 0 4.0833.28 5.81.84 1.7733.5133 3.1967 1.1667 4.27 1.96l-.63 9.1c-1.12-.7933-2.38-1.4467-3.78-1.96-1.4-.5133-2.73-.77-3.99-.77-1.4 0-2.5667.3733-3.5 1.12-.8867.7467-1.33 1.96-1.33 3.64 0 1.1667.2333 2.1.7 2.8.5133.6533 1.12 1.1433 1.82 1.47.7467.28 1.47.4667 2.17.56h8.4v7.91h-9.59V130h-9.8Zm21.659 0V79.95h9.94V130h-9.94Zm32.369.98c-3.6867 0-6.93-.723-9.73-2.17-2.8-1.493-4.9934-3.663-6.58-6.51-1.5867-2.893-2.38-6.487-2.38-10.78 0-4.293.7933-7.863 2.38-10.71 1.6333-2.8467 3.85-4.97 6.65-6.37 2.8466-1.4467 6.0666-2.17 9.66-2.17 3.6866 0 6.93.7233 9.73 2.17 2.8464 1.4467 5.0634 3.6167 6.6504 6.51 1.633 2.847 2.45 6.417 2.45 10.71 0 4.34-.84 7.957-2.52 10.85-1.634 2.847-3.874 4.97-6.7204 6.37-2.8 1.4-5.9967 2.1-9.59 2.1Zm.35-7.49c1.82 0 3.3366-.42 4.55-1.26 1.26-.84 2.1933-2.1 2.8-3.78.6533-1.727.98-3.803.98-6.23 0-2.567-.35-4.737-1.05-6.51-.6534-1.82-1.6334-3.197-2.94-4.13-1.3067-.98-2.9634-1.47-4.97-1.47-1.7267 0-3.22.42-4.48 1.26-1.26.793-2.2167 2.053-2.87 3.78-.6534 1.68-.98 3.757-.98 6.23 0 3.967.7933 6.977 2.38 9.03 1.5866 2.053 3.78 3.08 6.58 3.08ZM116.995 130l-9.1-36.75h10.5l5.18 28.77h1.33l6.16-28.77h12.11l6.37 28.77h1.33l5.04-28.77h10.29l-9.17 36.75h-13.86l-5.74-28.56h-1.19l-5.46 28.56h-13.79ZM42.5963 13.192c-.448 0-.8533-.08-1.216-.24-.3627-.1707-.6507-.432-.864-.784-.2133-.352-.32-.7893-.32-1.312 0-.3733.064-.7093.192-1.008.1387-.29867.352-.55467.64-.768.288-.224.672-.41067 1.152-.56.48-.14933 1.0667-.26667 1.76-.352.4267-.05333.768-.10667 1.024-.16.256-.064.4427-.15467.56-.272.128-.128.192-.32.192-.576 0-.43733-.1493-.80533-.448-1.104-.2987-.30933-.768-.464-1.408-.464-.3093 0-.6347.05333-.976.16-.3413.10667-.64.29333-.896.56-.256.26667-.416.64533-.48 1.136l-1.104-.4c.0747-.37333.2027-.70933.384-1.008.1813-.29867.4213-.56.72-.784.2987-.224.6453-.39467 1.04-.512.4053-.11733.8533-.176 1.344-.176.672 0 1.2267.112 1.664.336.448.224.7787.57067.992 1.04.224.45867.336 1.05067.336 1.776v1.968c0 .32.0053.6773.016 1.072.0213.384.048.7733.08 1.168.032.384.064.7413.096 1.072h-1.104c-.032-.3627-.0587-.7147-.08-1.056-.0213-.3413-.0373-.6827-.048-1.024h-.192c-.1493.3947-.3573.768-.624 1.12-.2667.3413-.6027.6187-1.008.832-.3947.2133-.8693.32-1.424.32Zm.256-1.008c.2347 0 .48-.0373.736-.112.256-.0853.512-.2133.768-.384.256-.1813.496-.416.72-.704.2347-.2987.4533-.656.656-1.072v-1.68l.448.08c-.1707.18133-.4053.32-.704.416-.288.08533-.6133.15467-.976.208-.3627.05333-.7307.112-1.104.176-.3627.064-.6987.16-1.008.288-.2987.11733-.544.288-.736.512-.1813.2133-.272.512-.272.896 0 .4587.1333.8053.4 1.04.2773.224.6347.336 1.072.336Zm13.1295 1.008c-.576 0-1.088-.064-1.536-.192-.4373-.128-.8053-.3093-1.104-.544-.288-.2347-.5067-.5173-.656-.848-.1387-.3307-.2027-.6933-.192-1.088l1.056-.192c-.0427.3947.032.7307.224 1.008.2027.2773.496.4907.88.64.384.1387.848.208 1.392.208.6827 0 1.2107-.1173 1.584-.352.3733-.2347.56-.56.56-.976 0-.32-.1067-.5707-.32-.752-.2027-.18133-.4853-.32533-.848-.432-.352-.10667-.7627-.20267-1.232-.288-.384-.08533-.7627-.18133-1.136-.288-.3733-.11733-.7147-.26133-1.024-.432-.2987-.17067-.5387-.38933-.72-.656-.1813-.27733-.272-.624-.272-1.04 0-.50133.128-.928.384-1.28s.624-.624 1.104-.816c.48-.20267 1.0507-.304 1.712-.304.672 0 1.2373.10667 1.696.32.4693.21333.832.512 1.088.896.256.384.3947.832.416 1.344l-1.072.224c0-.39467-.0907-.72-.272-.976-.1813-.26667-.4373-.464-.768-.592-.3307-.128-.72-.192-1.168-.192-.608 0-1.0933.11733-1.456.352-.352.23467-.528.55467-.528.96 0 .30933.1013.56.304.752.2133.18133.496.32533.848.432.352.096.7413.18667 1.168.272.4267.08533.832.18133 1.216.288.384.10667.7253.24533 1.024.416.3093.17067.5493.39467.72.672.1813.2773.272.6293.272 1.056 0 .544-.144.9973-.432 1.36-.2773.352-.6667.6133-1.168.784-.5013.1707-1.0827.256-1.744.256ZM61.0921 13V1.864h1.184v6.4c.4373-.21333.864-.46933 1.28-.768.416-.30933.8-.62933 1.152-.96.3626-.33067.672-.65067.928-.96s.448-.58133.576-.816h1.392c-.224.40533-.5014.80533-.832 1.2-.32.39467-.6774.76267-1.072 1.104-.3947.34133-.8.64-1.216.896-.4054.24533-.8.42133-1.184.528v.16c.48-.01067.9066.07467 1.28.256.384.17067.736.416 1.056.736.32.32.624.688.912 1.104.2986.4053.5866.8427.864 1.312l.528.944h-1.344l-.4-.72c-.3414-.5547-.6827-1.0613-1.024-1.52-.3307-.4587-.704-.82133-1.12-1.088-.416-.26667-.896-.4-1.44-.4h-.336V13h-1.184Zm8.2116 0V4.76h1.184V13h-1.184Zm.592-9.744c-.2987 0-.5227-.05867-.672-.176-.1493-.128-.224-.31467-.224-.56 0-.23467.0747-.416.224-.544.1493-.128.368-.192.656-.192.2987 0 .5227.064.672.192.16.11733.24.29867.24.544 0 .24533-.08.432-.24.56-.1493.11733-.368.176-.656.176Zm9.1832 9.904c-.7146 0-1.248-.1973-1.6-.592-.3413-.3947-.512-.9813-.512-1.76V5.784h-1.248V4.76h.752c.2454 0 .4214-.04267.528-.128.1174-.096.1867-.25067.208-.464l.144-1.264h.752V4.76h2.464V5.8h-2.464v5.008c0 .4373.1014.7573.304.96.2027.192.4907.288.864.288.2027 0 .416-.0267.64-.08.224-.064.4587-.1867.704-.368v1.232c-.2986.1067-.576.1867-.832.24-.256.0533-.4906.08-.704.08Zm6.4232.032c-.64 0-1.2-.096-1.68-.288-.48-.2027-.8854-.4907-1.216-.864-.3307-.3733-.576-.816-.736-1.328-.16-.512-.24-1.07733-.24-1.696 0-.64.08-1.22667.24-1.76.1706-.544.416-1.01867.736-1.424.32-.40533.7093-.71467 1.168-.928.4693-.224 1.008-.336 1.616-.336.512 0 .9813.09067 1.408.272.4266.17067.7946.43733 1.104.8.3093.36267.544.82667.704 1.392.16.55467.2293 1.216.208 1.984l-6.464.048v-.912l5.728-.048-.4.688c.0426-.704-.032-1.29067-.224-1.76-.1814-.46933-.4534-.82133-.816-1.056-.352-.23467-.7734-.352-1.264-.352-.5227 0-.9814.13333-1.376.4-.384.26667-.6827.656-.896 1.168-.2134.50133-.32 1.104-.32 1.808 0 1.0133.224 1.7973.672 2.352.4586.544 1.152.816 2.08.816.352 0 .6613-.0373.928-.112.2666-.0853.4906-.2027.672-.352.192-.1493.352-.3253.48-.528.128-.2027.224-.4267.288-.672l1.04.256c-.1067.384-.2614.7307-.464 1.04-.192.2987-.432.5547-.72.768-.288.2027-.6187.3573-.992.464-.3734.1067-.7947.16-1.264.16Zm8.2785 0c-.576 0-1.088-.064-1.536-.192-.4374-.128-.8054-.3093-1.104-.544-.288-.2347-.5067-.5173-.656-.848-.1387-.3307-.2027-.6933-.192-1.088l1.056-.192c-.0427.3947.032.7307.224 1.008.2026.2773.496.4907.88.64.384.1387.848.208 1.392.208.6826 0 1.2106-.1173 1.584-.352.3733-.2347.56-.56.56-.976 0-.32-.1067-.5707-.32-.752-.2027-.18133-.4854-.32533-.848-.432-.352-.10667-.7627-.20267-1.232-.288-.384-.08533-.7627-.18133-1.136-.288-.3734-.11733-.7147-.26133-1.024-.432-.2987-.17067-.5387-.38933-.72-.656-.1814-.27733-.272-.624-.272-1.04 0-.50133.128-.928.384-1.28s.624-.624 1.104-.816c.48-.20267 1.0506-.304 1.712-.304.672 0 1.2373.10667 1.696.32.4693.21333.832.512 1.088.896.256.384.3946.832.416 1.344l-1.072.224c0-.39467-.0907-.72-.272-.976-.1814-.26667-.4374-.464-.768-.592-.3307-.128-.72-.192-1.168-.192-.608 0-1.0934.11733-1.456.352-.352.23467-.528.55467-.528.96 0 .30933.1013.56.304.752.2133.18133.496.32533.848.432.352.096.7413.18667 1.168.272.4266.08533.832.18133 1.216.288.384.10667.7253.24533 1.024.416.3093.17067.5493.39467.72.672.1813.2773.272.6293.272 1.056 0 .544-.144.9973-.432 1.36-.2774.352-.6667.6133-1.168.784-.5014.1707-1.0827.256-1.744.256Zm7.5104-.032c-.715 0-1.248-.1973-1.6002-.592-.3413-.3947-.512-.9813-.512-1.76V5.784h-1.248V4.76h.752c.2453 0 .4213-.04267.528-.128.1173-.096.1867-.25067.208-.464l.144-1.264h.7522V4.76h2.464V5.8h-2.464v5.008c0 .4373.101.7573.304.96.202.192.49.288.864.288.202 0 .416-.0267.64-.08.224-.064.458-.1867.704-.368v1.232c-.299.1067-.576.1867-.832.24-.256.0533-.491.08-.704.08Zm3.108-.16V4.76h1.184V13h-1.184Zm.592-9.744c-.298 0-.522-.05867-.672-.176-.149-.128-.224-.31467-.224-.56 0-.23467.075-.416.224-.544.15-.128.368-.192.656-.192.299 0 .523.064.672.192.16.11733.24.29867.24.544 0 .24533-.08.432-.24.56-.149.11733-.368.176-.656.176ZM107.923 13V4.76h1.136l-.192 2.656h.24c.16-.65067.362-1.184.608-1.6.256-.42667.576-.74133.96-.944.384-.20267.826-.304 1.328-.304.896 0 1.573.32533 2.032.976.469.64.704 1.584.704 2.832V13h-1.184V8.456c0-.94933-.155-1.65333-.464-2.112-.299-.45867-.747-.688-1.344-.688-.523 0-.982.17067-1.376.512-.384.34133-.683.78933-.896 1.344-.214.544-.336 1.13067-.368 1.76V13h-1.184Zm12.031 2.768c-.853 0-1.557-.0693-2.112-.208-.544-.128-.949-.3307-1.216-.608-.266-.2667-.4-.6027-.4-1.008 0-.4907.192-.8907.576-1.2.384-.32.971-.544 1.76-.672v-.288c-.576.0107-1.002-.0533-1.28-.192-.266-.1493-.4-.3573-.4-.624 0-.288.139-.528.416-.72.288-.192.742-.37333 1.36-.544v-.288c-.64 0-1.125-.192-1.456-.576-.33-.384-.496-.87467-.496-1.472 0-.55467.144-1.02933.432-1.424.299-.39467.72-.69333 1.264-.896.555-.21333 1.206-.32 1.952-.32h3.776v1.056l-2.512-.4v.288c.598.13867 1.062.37333 1.392.704.342.32.512.74667.512 1.28 0 .45867-.133.864-.4 1.216-.256.34133-.645.608-1.168.8-.512.18133-1.146.272-1.904.272-.149 0-.309-.00533-.48-.016-.16-.02133-.357-.05333-.592-.096-.32.192-.576.368-.768.528-.192.1493-.288.2933-.288.432 0 .128.091.2293.272.304.192.0747.422.128.688.16.278.0213.528.032.752.032h1.696c.214 0 .48.0213.8.064.32.0427.64.1333.96.272.32.1387.587.352.8.64.224.2773.336.6613.336 1.152 0 .5653-.17 1.0187-.512 1.36-.341.352-.826.6027-1.456.752-.629.16-1.397.24-2.304.24Zm-.032-.992c.726 0 1.323-.048 1.792-.144.47-.096.816-.2507 1.04-.464.235-.2027.352-.464.352-.784 0-.2987-.08-.528-.24-.688-.16-.1707-.357-.288-.592-.352-.234-.0747-.474-.1173-.72-.128-.234-.0213-.437-.032-.608-.032h-1.808c-.682.1707-1.146.384-1.392.64-.234.256-.352.528-.352.816 0 .32.112.56.336.72.235.16.544.2667.928.32.395.064.816.096 1.264.096Zm.256-5.68c.726 0 1.275-.144 1.648-.432.374-.288.56-.68267.56-1.184 0-.52267-.192-.95467-.576-1.296-.373-.34133-.938-.512-1.696-.512-.725 0-1.28.16533-1.664.496-.384.32-.576.736-.576 1.248 0 .34133.086.64.256.896.182.24533.443.43733.784.576.342.13867.763.208 1.264.208Zm11.407 4.096c-.448 0-.853-.08-1.216-.24-.363-.1707-.651-.432-.864-.784-.213-.352-.32-.7893-.32-1.312 0-.3733.064-.7093.192-1.008.139-.29867.352-.55467.64-.768.288-.224.672-.41067 1.152-.56.48-.14933 1.067-.26667 1.76-.352.427-.05333.768-.10667 1.024-.16.256-.064.443-.15467.56-.272.128-.128.192-.32.192-.576 0-.43733-.149-.80533-.448-1.104-.299-.30933-.768-.464-1.408-.464-.309 0-.635.05333-.976.16-.341.10667-.64.29333-.896.56-.256.26667-.416.64533-.48 1.136l-1.104-.4c.075-.37333.203-.70933.384-1.008s.421-.56.72-.784c.299-.224.645-.39467 1.04-.512.405-.11733.853-.176 1.344-.176.672 0 1.227.112 1.664.336.448.224.779.57067.992 1.04.224.45867.336 1.05067.336 1.776v1.968c0 .32.005.6773.016 1.072.021.384.048.7733.08 1.168.032.384.064.7413.096 1.072h-1.104c-.032-.3627-.059-.7147-.08-1.056-.021-.3413-.037-.6827-.048-1.024h-.192c-.149.3947-.357.768-.624 1.12-.267.3413-.603.6187-1.008.832-.395.2133-.869.32-1.424.32Zm.256-1.008c.235 0 .48-.0373.736-.112.256-.0853.512-.2133.768-.384.256-.1813.496-.416.72-.704.235-.2987.453-.656.656-1.072v-1.68l.448.08c-.171.18133-.405.32-.704.416-.288.08533-.613.15467-.976.208-.363.05333-.731.112-1.104.176-.363.064-.699.16-1.008.288-.299.11733-.544.288-.736.512-.181.2133-.272.512-.272.896 0 .4587.133.8053.4 1.04.277.224.635.336 1.072.336Zm6.302 3.376V4.76h1.104l-.096 2.064h.224c.138-.43733.32-.82133.544-1.152.224-.34133.512-.608.864-.8.352-.20267.789-.304 1.312-.304.757 0 1.386.192 1.888.576.501.384.874.90133 1.12 1.552.245.65067.368 1.376.368 2.176 0 .832-.128 1.5733-.384 2.224-.256.6507-.63 1.1627-1.12 1.536-.491.3733-1.088.56-1.792.56-.598 0-1.088-.1227-1.472-.368-.374-.256-.672-.5813-.896-.976-.214-.4053-.379-.8107-.496-1.216h-.24c.053.2987.096.608.128.928.042.3093.074.6187.096.928.021.2987.032.592.032.88v2.192h-1.184Zm3.808-3.44c.501 0 .922-.144 1.264-.432.341-.288.597-.6773.768-1.168.17-.5013.256-1.06667.256-1.696 0-.65067-.091-1.21067-.272-1.68-.171-.46933-.427-.83733-.768-1.104-.342-.26667-.752-.4-1.232-.4-.406 0-.768.096-1.088.288-.32.18133-.598.42667-.832.736-.235.30933-.416.64533-.544 1.008-.118.36267-.176.73067-.176 1.104v.16c0 .21333.032.45867.096.736.064.27733.165.56.304.848.138.288.309.5547.512.8.202.2453.448.4427.736.592.288.1387.613.208.976.208Zm5.434 3.44V4.76h1.104l-.096 2.064h.224c.139-.43733.32-.82133.544-1.152.224-.34133.512-.608.864-.8.352-.20267.79-.304 1.312-.304.758 0 1.387.192 1.888.576.502.384.875.90133 1.12 1.552.246.65067.368 1.376.368 2.176 0 .832-.128 1.5733-.384 2.224-.256.6507-.629 1.1627-1.12 1.536-.49.3733-1.088.56-1.792.56-.597 0-1.088-.1227-1.472-.368-.373-.256-.672-.5813-.896-.976-.213-.4053-.378-.8107-.496-1.216h-.24c.054.2987.096.608.128.928.043.3093.075.6187.096.928.022.2987.032.592.032.88v2.192h-1.184Zm3.808-3.44c.502 0 .923-.144 1.264-.432.342-.288.598-.6773.768-1.168.171-.5013.256-1.06667.256-1.696 0-.65067-.09-1.21067-.272-1.68-.17-.46933-.426-.83733-.768-1.104-.341-.26667-.752-.4-1.232-.4-.405 0-.768.096-1.088.288-.32.18133-.597.42667-.832.736-.234.30933-.416.64533-.544 1.008-.117.36267-.176.73067-.176 1.104v.16c0 .21333.032.45867.096.736.064.27733.166.56.304.848.139.288.31.5547.512.8.203.2453.448.4427.736.592.288.1387.614.208.976.208Z" fill="#000814"/></svg>